<?xml version="1.0" encoding="UTF-8" standalone="no"?>
<!DOCTYPE svg PUBLIC "-//W3C//DTD SVG 1.1//EN"
 "http://www.w3.org/Graphics/SVG/1.1/DTD/svg11.dtd">
<!-- Generated by graphviz version 2.40.1 (20161225.0304)
 -->
<!-- Title: dependencies Pages: 1 -->
<svg width="3221pt" height="284pt"
 viewBox="0.00 0.00 3221.00 284.00" xmlns="http://www.w3.org/2000/svg" xmlns:xlink="http://www.w3.org/1999/xlink">
<g id="graph0" class="graph" transform="scale(1 1) rotate(0) translate(4 280)">
<title>dependencies</title>
<polygon fill="#ffffff" stroke="transparent" points="-4,4 -4,-280 3217,-280 3217,4 -4,4"/>
<text text-anchor="start" x="1585.5091" y="-42.4" font-family="sans-serif" font-weight="bold" font-size="14.00" fill="#000000">Legend</text>
<polygon fill="#ffffb3" stroke="transparent" points="1372.5,-10 1372.5,-30 1392.5,-30 1392.5,-10 1372.5,-10"/>
<text text-anchor="start" x="1396.129" y="-15.4" font-family="sans-serif" font-size="14.00" fill="#000000"> &#160;Declarations</text>
<polygon fill="#8dd3c7" stroke="transparent" points="1485.5,-10 1485.5,-30 1505.5,-30 1505.5,-10 1485.5,-10"/>
<text text-anchor="start" x="1509.2251" y="-15.4" font-family="sans-serif" font-size="14.00" fill="#000000"> &#160;Module</text>
<polygon fill="#80b1d3" stroke="transparent" points="1571.5,-10 1571.5,-30 1591.5,-30 1591.5,-10 1571.5,-10"/>
<text text-anchor="start" x="1595.2812" y="-15.4" font-family="sans-serif" font-size="14.00" fill="#000000"> &#160;Bootstrap</text>
<polygon fill="#fdb462" stroke="transparent" points="1668.5,-10 1668.5,-30 1688.5,-30 1688.5,-10 1668.5,-10"/>
<text text-anchor="start" x="1692.1732" y="-15.4" font-family="sans-serif" font-size="14.00" fill="#000000"> &#160;Providers</text>
<polygon fill="#fb8072" stroke="transparent" points="1764.5,-10 1764.5,-30 1784.5,-30 1784.5,-10 1764.5,-10"/>
<text text-anchor="start" x="1788.2258" y="-15.4" font-family="sans-serif" font-size="14.00" fill="#000000"> &#160;Exports</text>
<g id="clust1" class="cluster">
<title>cluster_MaterialModule</title>
<polygon fill="none" stroke="#000000" stroke-dasharray="1,5" points="8,-70 8,-268 3205,-268 3205,-70 8,-70"/>
</g>
<g id="clust3" class="cluster">
<title>cluster_MaterialModule_imports</title>
<polygon fill="none" stroke="#000000" points="63,-78 63,-130 3168,-130 3168,-78 63,-78"/>
</g>
<g id="clust4" class="cluster">
<title>cluster_MaterialModule_exports</title>
<polygon fill="none" stroke="#000000" points="16,-208 16,-260 3197,-260 3197,-208 16,-208"/>
</g>
<!-- MatButtonModule -->
<g id="node1" class="node">
<title>MatButtonModule</title>
<polygon fill="#8dd3c7" stroke="#000000" points="3160.2176,-122 3157.2176,-126 3136.2176,-126 3133.2176,-122 3039.7824,-122 3039.7824,-86 3160.2176,-86 3160.2176,-122"/>
<text text-anchor="middle" x="3100" y="-99.8" font-family="Times,serif" font-size="14.00" fill="#000000">MatButtonModule</text>
</g>
<!-- MaterialModule -->
<g id="node23" class="node">
<title>MaterialModule</title>
<polygon fill="#8dd3c7" stroke="#000000" points="1694.4706,-187 1691.4706,-191 1670.4706,-191 1667.4706,-187 1587.5294,-187 1587.5294,-151 1694.4706,-151 1694.4706,-187"/>
<text text-anchor="middle" x="1641" y="-164.8" font-family="Times,serif" font-size="14.00" fill="#000000">MaterialModule</text>
</g>
<!-- MatButtonModule&#45;&gt;MaterialModule -->
<g id="edge1" class="edge">
<title>MatButtonModule&#45;&gt;MaterialModule</title>
<path fill="none" stroke="#000000" d="M3043.5104,-122.1061C3043.5104,-141.3391 3043.5104,-169 3043.5104,-169 3043.5104,-169 1704.6933,-169 1704.6933,-169"/>
<polygon fill="#000000" stroke="#000000" points="1704.6933,-165.5001 1694.6933,-169 1704.6933,-172.5001 1704.6933,-165.5001"/>
</g>
<!-- MatMenuModule -->
<g id="node2" class="node">
<title>MatMenuModule</title>
<polygon fill="#8dd3c7" stroke="#000000" points="3022.2591,-122 3019.2591,-126 2998.2591,-126 2995.2591,-122 2907.7409,-122 2907.7409,-86 3022.2591,-86 3022.2591,-122"/>
<text text-anchor="middle" x="2965" y="-99.8" font-family="Times,serif" font-size="14.00" fill="#000000">MatMenuModule</text>
</g>
<!-- MatMenuModule&#45;&gt;MaterialModule -->
<g id="edge2" class="edge">
<title>MatMenuModule&#45;&gt;MaterialModule</title>
<path fill="none" stroke="#000000" d="M2919.9148,-122.2222C2919.9148,-140.8285 2919.9148,-167 2919.9148,-167 2919.9148,-167 1704.7301,-167 1704.7301,-167"/>
<polygon fill="#000000" stroke="#000000" points="1704.7302,-163.5001 1694.7301,-167 1704.7301,-170.5001 1704.7302,-163.5001"/>
</g>
<!-- MatToolbarModule -->
<g id="node3" class="node">
<title>MatToolbarModule</title>
<polygon fill="#8dd3c7" stroke="#000000" points="2889.4187,-122 2886.4187,-126 2865.4187,-126 2862.4187,-122 2762.5813,-122 2762.5813,-86 2889.4187,-86 2889.4187,-122"/>
<text text-anchor="middle" x="2826" y="-99.8" font-family="Times,serif" font-size="14.00" fill="#000000">MatToolbarModule</text>
</g>
<!-- MatToolbarModule&#45;&gt;MaterialModule -->
<g id="edge3" class="edge">
<title>MatToolbarModule&#45;&gt;MaterialModule</title>
<path fill="none" stroke="#000000" d="M2772.1392,-122.302C2772.1392,-140.2699 2772.1392,-165 2772.1392,-165 2772.1392,-165 1704.7962,-165 1704.7962,-165"/>
<polygon fill="#000000" stroke="#000000" points="1704.7963,-161.5001 1694.7962,-165 1704.7962,-168.5001 1704.7963,-161.5001"/>
</g>
<!-- MatIconModule -->
<g id="node4" class="node">
<title>MatIconModule</title>
<polygon fill="#8dd3c7" stroke="#000000" points="2744.4748,-122 2741.4748,-126 2720.4748,-126 2717.4748,-122 2637.5252,-122 2637.5252,-86 2744.4748,-86 2744.4748,-122"/>
<text text-anchor="middle" x="2691" y="-99.8" font-family="Times,serif" font-size="14.00" fill="#000000">MatIconModule</text>
</g>
<!-- MatIconModule&#45;&gt;MaterialModule -->
<g id="edge4" class="edge">
<title>MatIconModule&#45;&gt;MaterialModule</title>
<path fill="none" stroke="#000000" d="M2645.1376,-122.0225C2645.1376,-139.3734 2645.1376,-163 2645.1376,-163 2645.1376,-163 1704.6318,-163 1704.6318,-163"/>
<polygon fill="#000000" stroke="#000000" points="1704.6318,-159.5001 1694.6318,-163 1704.6318,-166.5001 1704.6318,-159.5001"/>
</g>
<!-- MatCardModule -->
<g id="node5" class="node">
<title>MatCardModule</title>
<polygon fill="#8dd3c7" stroke="#000000" points="2619.8118,-122 2616.8118,-126 2595.8118,-126 2592.8118,-122 2510.1882,-122 2510.1882,-86 2619.8118,-86 2619.8118,-122"/>
<text text-anchor="middle" x="2565" y="-99.8" font-family="Times,serif" font-size="14.00" fill="#000000">MatCardModule</text>
</g>
<!-- MatCardModule&#45;&gt;MaterialModule -->
<g id="edge5" class="edge">
<title>MatCardModule&#45;&gt;MaterialModule</title>
<path fill="none" stroke="#000000" d="M2515.9693,-122.0336C2515.9693,-139.0597 2515.9693,-162 2515.9693,-162 2515.9693,-162 1704.7441,-162 1704.7441,-162"/>
<polygon fill="#000000" stroke="#000000" points="1704.7441,-158.5001 1694.7441,-162 1704.7441,-165.5001 1704.7441,-158.5001"/>
</g>
<!-- MatGridListModule -->
<g id="node6" class="node">
<title>MatGridListModule</title>
<polygon fill="#8dd3c7" stroke="#000000" points="2492.5366,-122 2489.5366,-126 2468.5366,-126 2465.5366,-122 2363.4634,-122 2363.4634,-86 2492.5366,-86 2492.5366,-122"/>
<text text-anchor="middle" x="2428" y="-99.8" font-family="Times,serif" font-size="14.00" fill="#000000">MatGridListModule</text>
</g>
<!-- MatGridListModule&#45;&gt;MaterialModule -->
<g id="edge6" class="edge">
<title>MatGridListModule&#45;&gt;MaterialModule</title>
<path fill="none" stroke="#000000" d="M2366.8571,-122.027C2366.8571,-138.3976 2366.8571,-160 2366.8571,-160 2366.8571,-160 1704.6688,-160 1704.6688,-160"/>
<polygon fill="#000000" stroke="#000000" points="1704.6688,-156.5001 1694.6688,-160 1704.6687,-163.5001 1704.6688,-156.5001"/>
</g>
<!-- MatSidenavModule -->
<g id="node7" class="node">
<title>MatSidenavModule</title>
<polygon fill="#8dd3c7" stroke="#000000" points="2345.7022,-122 2342.7022,-126 2321.7022,-126 2318.7022,-122 2218.2978,-122 2218.2978,-86 2345.7022,-86 2345.7022,-122"/>
<text text-anchor="middle" x="2282" y="-99.8" font-family="Times,serif" font-size="14.00" fill="#000000">MatSidenavModule</text>
</g>
<!-- MatSidenavModule&#45;&gt;MaterialModule -->
<g id="edge7" class="edge">
<title>MatSidenavModule&#45;&gt;MaterialModule</title>
<path fill="none" stroke="#000000" d="M2304.2837,-122.2819C2304.2837,-137.9478 2304.2837,-158 2304.2837,-158 2304.2837,-158 1704.7174,-158 1704.7174,-158"/>
<polygon fill="#000000" stroke="#000000" points="1704.7175,-154.5001 1694.7174,-158 1704.7174,-161.5001 1704.7175,-154.5001"/>
</g>
<!-- MatSortModule -->
<g id="node8" class="node">
<title>MatSortModule</title>
<polygon fill="#8dd3c7" stroke="#000000" points="2200.9343,-122 2197.9343,-126 2176.9343,-126 2173.9343,-122 2095.0657,-122 2095.0657,-86 2200.9343,-86 2200.9343,-122"/>
<text text-anchor="middle" x="2148" y="-99.8" font-family="Times,serif" font-size="14.00" fill="#000000">MatSortModule</text>
</g>
<!-- MatSortModule&#45;&gt;MaterialModule -->
<g id="edge8" class="edge">
<title>MatSortModule&#45;&gt;MaterialModule</title>
<path fill="none" stroke="#000000" d="M2165.5722,-122.2396C2165.5722,-137.5706 2165.5722,-157 2165.5722,-157 2165.5722,-157 1704.6732,-157 1704.6732,-157"/>
<polygon fill="#000000" stroke="#000000" points="1704.6733,-153.5001 1694.6732,-157 1704.6732,-160.5001 1704.6733,-153.5001"/>
</g>
<!-- MatTableModule -->
<g id="node9" class="node">
<title>MatTableModule</title>
<polygon fill="#8dd3c7" stroke="#000000" points="2076.972,-122 2073.972,-126 2052.972,-126 2049.972,-122 1963.028,-122 1963.028,-86 2076.972,-86 2076.972,-122"/>
<text text-anchor="middle" x="2020" y="-99.8" font-family="Times,serif" font-size="14.00" fill="#000000">MatTableModule</text>
</g>
<!-- MatTableModule&#45;&gt;MaterialModule -->
<g id="edge9" class="edge">
<title>MatTableModule&#45;&gt;MaterialModule</title>
<path fill="none" stroke="#000000" d="M2000.9213,-122.1243C2000.9213,-136.7832 2000.9213,-155 2000.9213,-155 2000.9213,-155 1704.4952,-155 1704.4952,-155"/>
<polygon fill="#000000" stroke="#000000" points="1704.4953,-151.5001 1694.4952,-155 1704.4952,-158.5001 1704.4953,-151.5001"/>
</g>
<!-- MatInputModule -->
<g id="node10" class="node">
<title>MatInputModule</title>
<polygon fill="#8dd3c7" stroke="#000000" points="1944.6513,-122 1941.6513,-126 1920.6513,-126 1917.6513,-122 1833.3487,-122 1833.3487,-86 1944.6513,-86 1944.6513,-122"/>
<text text-anchor="middle" x="1889" y="-99.8" font-family="Times,serif" font-size="14.00" fill="#000000">MatInputModule</text>
</g>
<!-- MatInputModule&#45;&gt;MaterialModule -->
<g id="edge10" class="edge">
<title>MatInputModule&#45;&gt;MaterialModule</title>
<path fill="none" stroke="#000000" d="M1869.3082,-122.2458C1869.3082,-136.1772 1869.3082,-153 1869.3082,-153 1869.3082,-153 1704.5281,-153 1704.5281,-153"/>
<polygon fill="#000000" stroke="#000000" points="1704.5282,-149.5001 1694.5281,-153 1704.5281,-156.5001 1704.5282,-149.5001"/>
</g>
<!-- MatSelectModule -->
<g id="node11" class="node">
<title>MatSelectModule</title>
<polygon fill="#8dd3c7" stroke="#000000" points="1815.3076,-122 1812.3076,-126 1791.3076,-126 1788.3076,-122 1698.6924,-122 1698.6924,-86 1815.3076,-86 1815.3076,-122"/>
<text text-anchor="middle" x="1757" y="-99.8" font-family="Times,serif" font-size="14.00" fill="#000000">MatSelectModule</text>
</g>
<!-- MatSelectModule&#45;&gt;MaterialModule -->
<g id="edge11" class="edge">
<title>MatSelectModule&#45;&gt;MaterialModule</title>
<path fill="none" stroke="#000000" d="M1698.7732,-104C1692.0996,-104 1687.6273,-104 1687.6273,-104 1687.6273,-104 1687.6273,-140.8939 1687.6273,-140.8939"/>
<polygon fill="#000000" stroke="#000000" points="1684.1274,-140.8938 1687.6273,-150.8939 1691.1274,-140.8939 1684.1274,-140.8938"/>
</g>
<!-- MatSliderModule -->
<g id="node12" class="node">
<title>MatSliderModule</title>
<polygon fill="#8dd3c7" stroke="#000000" points="1680.5395,-122 1677.5395,-126 1656.5395,-126 1653.5395,-122 1565.4605,-122 1565.4605,-86 1680.5395,-86 1680.5395,-122"/>
<text text-anchor="middle" x="1623" y="-99.8" font-family="Times,serif" font-size="14.00" fill="#000000">MatSliderModule</text>
</g>
<!-- MatSliderModule&#45;&gt;MaterialModule -->
<g id="edge12" class="edge">
<title>MatSliderModule&#45;&gt;MaterialModule</title>
<path fill="none" stroke="#000000" d="M1634.142,-122.1061C1634.142,-122.1061 1634.142,-140.991 1634.142,-140.991"/>
<polygon fill="#000000" stroke="#000000" points="1630.6421,-140.9909 1634.142,-150.991 1637.6421,-140.991 1630.6421,-140.9909"/>
</g>
<!-- MatRadioModule -->
<g id="node13" class="node">
<title>MatRadioModule</title>
<polygon fill="#8dd3c7" stroke="#000000" points="1546.5423,-122 1543.5423,-126 1522.5423,-126 1519.5423,-122 1431.4577,-122 1431.4577,-86 1546.5423,-86 1546.5423,-122"/>
<text text-anchor="middle" x="1489" y="-99.8" font-family="Times,serif" font-size="14.00" fill="#000000">MatRadioModule</text>
</g>
<!-- MatRadioModule&#45;&gt;MaterialModule -->
<g id="edge13" class="edge">
<title>MatRadioModule&#45;&gt;MaterialModule</title>
<path fill="none" stroke="#000000" d="M1540.6457,-122.2458C1540.6457,-136.1772 1540.6457,-153 1540.6457,-153 1540.6457,-153 1577.2974,-153 1577.2974,-153"/>
<polygon fill="#000000" stroke="#000000" points="1577.2974,-156.5001 1587.2974,-153 1577.2973,-149.5001 1577.2974,-156.5001"/>
</g>
<!-- MatListModule -->
<g id="node14" class="node">
<title>MatListModule</title>
<polygon fill="#8dd3c7" stroke="#000000" points="1412.8781,-122 1409.8781,-126 1388.8781,-126 1385.8781,-122 1309.1219,-122 1309.1219,-86 1412.8781,-86 1412.8781,-122"/>
<text text-anchor="middle" x="1361" y="-99.8" font-family="Times,serif" font-size="14.00" fill="#000000">MatListModule</text>
</g>
<!-- MatListModule&#45;&gt;MaterialModule -->
<g id="edge14" class="edge">
<title>MatListModule&#45;&gt;MaterialModule</title>
<path fill="none" stroke="#000000" d="M1405.314,-122.1243C1405.314,-136.7832 1405.314,-155 1405.314,-155 1405.314,-155 1577.5192,-155 1577.5192,-155"/>
<polygon fill="#000000" stroke="#000000" points="1577.5192,-158.5001 1587.5192,-155 1577.5192,-151.5001 1577.5192,-158.5001"/>
</g>
<!-- MatProgressSpinnerModule -->
<g id="node15" class="node">
<title>MatProgressSpinnerModule</title>
<polygon fill="#8dd3c7" stroke="#000000" points="1290.8557,-122 1287.8557,-126 1266.8557,-126 1263.8557,-122 1117.1443,-122 1117.1443,-86 1290.8557,-86 1290.8557,-122"/>
<text text-anchor="middle" x="1204" y="-99.8" font-family="Times,serif" font-size="14.00" fill="#000000">MatProgressSpinnerModule</text>
</g>
<!-- MatProgressSpinnerModule&#45;&gt;MaterialModule -->
<g id="edge15" class="edge">
<title>MatProgressSpinnerModule&#45;&gt;MaterialModule</title>
<path fill="none" stroke="#000000" d="M1281.4944,-122.2396C1281.4944,-137.5706 1281.4944,-157 1281.4944,-157 1281.4944,-157 1577.1784,-157 1577.1784,-157"/>
<polygon fill="#000000" stroke="#000000" points="1577.1784,-160.5001 1587.1784,-157 1577.1783,-153.5001 1577.1784,-160.5001"/>
</g>
<!-- MatChipsModule -->
<g id="node16" class="node">
<title>MatChipsModule</title>
<polygon fill="#8dd3c7" stroke="#000000" points="1099.2716,-122 1096.2716,-126 1075.2716,-126 1072.2716,-122 984.7284,-122 984.7284,-86 1099.2716,-86 1099.2716,-122"/>
<text text-anchor="middle" x="1042" y="-99.8" font-family="Times,serif" font-size="14.00" fill="#000000">MatChipsModule</text>
</g>
<!-- MatChipsModule&#45;&gt;MaterialModule -->
<g id="edge16" class="edge">
<title>MatChipsModule&#45;&gt;MaterialModule</title>
<path fill="none" stroke="#000000" d="M1086.229,-122.2819C1086.229,-137.9478 1086.229,-158 1086.229,-158 1086.229,-158 1577.3021,-158 1577.3021,-158"/>
<polygon fill="#000000" stroke="#000000" points="1577.3022,-161.5001 1587.3021,-158 1577.3021,-154.5001 1577.3022,-161.5001"/>
</g>
<!-- MatTooltipModule -->
<g id="node17" class="node">
<title>MatTooltipModule</title>
<polygon fill="#8dd3c7" stroke="#000000" points="966.8244,-122 963.8244,-126 942.8244,-126 939.8244,-122 843.1756,-122 843.1756,-86 966.8244,-86 966.8244,-122"/>
<text text-anchor="middle" x="905" y="-99.8" font-family="Times,serif" font-size="14.00" fill="#000000">MatTooltipModule</text>
</g>
<!-- MatTooltipModule&#45;&gt;MaterialModule -->
<g id="edge17" class="edge">
<title>MatTooltipModule&#45;&gt;MaterialModule</title>
<path fill="none" stroke="#000000" d="M962.7632,-122.027C962.7632,-138.3976 962.7632,-160 962.7632,-160 962.7632,-160 1577.4968,-160 1577.4968,-160"/>
<polygon fill="#000000" stroke="#000000" points="1577.4968,-163.5001 1587.4968,-160 1577.4967,-156.5001 1577.4968,-163.5001"/>
</g>
<!-- MatExpansionModule -->
<g id="node18" class="node">
<title>MatExpansionModule</title>
<polygon fill="#8dd3c7" stroke="#000000" points="825.7021,-122 822.7021,-126 801.7021,-126 798.7021,-122 684.2979,-122 684.2979,-86 825.7021,-86 825.7021,-122"/>
<text text-anchor="middle" x="755" y="-99.8" font-family="Times,serif" font-size="14.00" fill="#000000">MatExpansionModule</text>
</g>
<!-- MatExpansionModule&#45;&gt;MaterialModule -->
<g id="edge18" class="edge">
<title>MatExpansionModule&#45;&gt;MaterialModule</title>
<path fill="none" stroke="#000000" d="M819.5945,-122.0336C819.5945,-139.0597 819.5945,-162 819.5945,-162 819.5945,-162 1577.4221,-162 1577.4221,-162"/>
<polygon fill="#000000" stroke="#000000" points="1577.4222,-165.5001 1587.4221,-162 1577.4221,-158.5001 1577.4222,-165.5001"/>
</g>
<!-- MatDialogModule -->
<g id="node19" class="node">
<title>MatDialogModule</title>
<polygon fill="#8dd3c7" stroke="#000000" points="666.2022,-122 663.2022,-126 642.2022,-126 639.2022,-122 545.7978,-122 545.7978,-86 666.2022,-86 666.2022,-122"/>
<text text-anchor="middle" x="606" y="-99.8" font-family="Times,serif" font-size="14.00" fill="#000000">MatDialogModule</text>
</g>
<!-- MatDialogModule&#45;&gt;MaterialModule -->
<g id="edge19" class="edge">
<title>MatDialogModule&#45;&gt;MaterialModule</title>
<path fill="none" stroke="#000000" d="M658.375,-122.0225C658.375,-139.3734 658.375,-163 658.375,-163 658.375,-163 1577.472,-163 1577.472,-163"/>
<polygon fill="#000000" stroke="#000000" points="1577.472,-166.5001 1587.472,-163 1577.472,-159.5001 1577.472,-166.5001"/>
</g>
<!-- MatAutocompleteModule -->
<g id="node20" class="node">
<title>MatAutocompleteModule</title>
<polygon fill="#8dd3c7" stroke="#000000" points="527.9129,-122 524.9129,-126 503.9129,-126 500.9129,-122 366.0871,-122 366.0871,-86 527.9129,-86 527.9129,-122"/>
<text text-anchor="middle" x="447" y="-99.8" font-family="Times,serif" font-size="14.00" fill="#000000">MatAutocompleteModule</text>
</g>
<!-- MatAutocompleteModule&#45;&gt;MaterialModule -->
<g id="edge20" class="edge">
<title>MatAutocompleteModule&#45;&gt;MaterialModule</title>
<path fill="none" stroke="#000000" d="M518.4276,-122.302C518.4276,-140.2699 518.4276,-165 518.4276,-165 518.4276,-165 1577.2342,-165 1577.2342,-165"/>
<polygon fill="#000000" stroke="#000000" points="1577.2342,-168.5001 1587.2342,-165 1577.2342,-161.5001 1577.2342,-168.5001"/>
</g>
<!-- MatTabsModule -->
<g id="node21" class="node">
<title>MatTabsModule</title>
<polygon fill="#8dd3c7" stroke="#000000" points="348.8118,-122 345.8118,-126 324.8118,-126 321.8118,-122 239.1882,-122 239.1882,-86 348.8118,-86 348.8118,-122"/>
<text text-anchor="middle" x="294" y="-99.8" font-family="Times,serif" font-size="14.00" fill="#000000">MatTabsModule</text>
</g>
<!-- MatTabsModule&#45;&gt;MaterialModule -->
<g id="edge21" class="edge">
<title>MatTabsModule&#45;&gt;MaterialModule</title>
<path fill="none" stroke="#000000" d="M337.5998,-122.2222C337.5998,-140.8285 337.5998,-167 337.5998,-167 337.5998,-167 1577.4752,-167 1577.4752,-167"/>
<polygon fill="#000000" stroke="#000000" points="1577.4752,-170.5001 1587.4752,-167 1577.4752,-163.5001 1577.4752,-170.5001"/>
</g>
<!-- MatSlideToggleModule -->
<g id="node22" class="node">
<title>MatSlideToggleModule</title>
<polygon fill="#8dd3c7" stroke="#000000" points="221.0365,-122 218.0365,-126 197.0365,-126 194.0365,-122 70.9635,-122 70.9635,-86 221.0365,-86 221.0365,-122"/>
<text text-anchor="middle" x="146" y="-99.8" font-family="Times,serif" font-size="14.00" fill="#000000">MatSlideToggleModule</text>
</g>
<!-- MatSlideToggleModule&#45;&gt;MaterialModule -->
<g id="edge22" class="edge">
<title>MatSlideToggleModule&#45;&gt;MaterialModule</title>
<path fill="none" stroke="#000000" d="M208.4311,-122.1061C208.4311,-141.3391 208.4311,-169 208.4311,-169 208.4311,-169 1577.4562,-169 1577.4562,-169"/>
<polygon fill="#000000" stroke="#000000" points="1577.4562,-172.5001 1587.4562,-169 1577.4561,-165.5001 1577.4562,-172.5001"/>
</g>
<!-- MatButtonModule  -->
<g id="node24" class="node">
<title>MatButtonModule </title>
<polygon fill="#fb8072" stroke="#000000" points="3188.7177,-252 3065.2823,-252 3065.2823,-216 3188.7177,-216 3188.7177,-252"/>
<text text-anchor="middle" x="3127" y="-229.8" font-family="Times,serif" font-size="14.00" fill="#000000">MatButtonModule </text>
</g>
<!-- MaterialModule&#45;&gt;MatButtonModule  -->
<g id="edge23" class="edge">
<title>MaterialModule&#45;&gt;MatButtonModule </title>
<path fill="none" stroke="#000000" stroke-dasharray="5,2" d="M1694.6825,-170C1959.35,-170 3112.625,-170 3112.625,-170 3112.625,-170 3112.625,-205.8314 3112.625,-205.8314"/>
<polygon fill="#000000" stroke="#000000" points="3109.1251,-205.8313 3112.625,-215.8314 3116.1251,-205.8314 3109.1251,-205.8313"/>
</g>
<!-- MatMenuModule  -->
<g id="node25" class="node">
<title>MatMenuModule </title>
<polygon fill="#fb8072" stroke="#000000" points="3047.2591,-252 2928.7409,-252 2928.7409,-216 3047.2591,-216 3047.2591,-252"/>
<text text-anchor="middle" x="2988" y="-229.8" font-family="Times,serif" font-size="14.00" fill="#000000">MatMenuModule </text>
</g>
<!-- MaterialModule&#45;&gt;MatMenuModule  -->
<g id="edge24" class="edge">
<title>MaterialModule&#45;&gt;MatMenuModule </title>
<path fill="none" stroke="#000000" stroke-dasharray="5,2" d="M1694.5564,-172C1943.5131,-172 2975.625,-172 2975.625,-172 2975.625,-172 2975.625,-205.7333 2975.625,-205.7333"/>
<polygon fill="#000000" stroke="#000000" points="2972.1251,-205.7333 2975.625,-215.7333 2979.1251,-205.7333 2972.1251,-205.7333"/>
</g>
<!-- MatToolbarModule  -->
<g id="node26" class="node">
<title>MatToolbarModule </title>
<polygon fill="#fb8072" stroke="#000000" points="2910.918,-252 2781.082,-252 2781.082,-216 2910.918,-216 2910.918,-252"/>
<text text-anchor="middle" x="2846" y="-229.8" font-family="Times,serif" font-size="14.00" fill="#000000">MatToolbarModule </text>
</g>
<!-- MaterialModule&#45;&gt;MatToolbarModule  -->
<g id="edge25" class="edge">
<title>MaterialModule&#45;&gt;MatToolbarModule </title>
<path fill="none" stroke="#000000" stroke-dasharray="5,2" d="M1694.6289,-174C1926.985,-174 2835.125,-174 2835.125,-174 2835.125,-174 2835.125,-205.998 2835.125,-205.998"/>
<polygon fill="#000000" stroke="#000000" points="2831.6251,-205.998 2835.125,-215.998 2838.6251,-205.9981 2831.6251,-205.998"/>
</g>
<!-- MatIconModule  -->
<g id="node27" class="node">
<title>MatIconModule </title>
<polygon fill="#fb8072" stroke="#000000" points="2763.4758,-252 2652.5242,-252 2652.5242,-216 2763.4758,-216 2763.4758,-252"/>
<text text-anchor="middle" x="2708" y="-229.8" font-family="Times,serif" font-size="14.00" fill="#000000">MatIconModule </text>
</g>
<!-- MaterialModule&#45;&gt;MatIconModule  -->
<g id="edge26" class="edge">
<title>MaterialModule&#45;&gt;MatIconModule </title>
<path fill="none" stroke="#000000" stroke-dasharray="5,2" d="M1694.5366,-175C1909.5333,-175 2698.625,-175 2698.625,-175 2698.625,-175 2698.625,-205.9775 2698.625,-205.9775"/>
<polygon fill="#000000" stroke="#000000" points="2695.1251,-205.9774 2698.625,-215.9775 2702.1251,-205.9775 2695.1251,-205.9774"/>
</g>
<!-- MatCardModule  -->
<g id="node28" class="node">
<title>MatCardModule </title>
<polygon fill="#fb8072" stroke="#000000" points="2634.3116,-252 2521.6884,-252 2521.6884,-216 2634.3116,-216 2634.3116,-252"/>
<text text-anchor="middle" x="2578" y="-229.8" font-family="Times,serif" font-size="14.00" fill="#000000">MatCardModule </text>
</g>
<!-- MaterialModule&#45;&gt;MatCardModule  -->
<g id="edge27" class="edge">
<title>MaterialModule&#45;&gt;MatCardModule </title>
<path fill="none" stroke="#000000" stroke-dasharray="5,2" d="M1694.6587,-177C1892.6284,-177 2570.625,-177 2570.625,-177 2570.625,-177 2570.625,-205.9648 2570.625,-205.9648"/>
<polygon fill="#000000" stroke="#000000" points="2567.1251,-205.9648 2570.625,-215.9648 2574.1251,-205.9649 2567.1251,-205.9648"/>
</g>
<!-- MatGridListModule  -->
<g id="node29" class="node">
<title>MatGridListModule </title>
<polygon fill="#fb8072" stroke="#000000" points="2503.5358,-252 2370.4642,-252 2370.4642,-216 2503.5358,-216 2503.5358,-252"/>
<text text-anchor="middle" x="2437" y="-229.8" font-family="Times,serif" font-size="14.00" fill="#000000">MatGridListModule </text>
</g>
<!-- MaterialModule&#45;&gt;MatGridListModule  -->
<g id="edge28" class="edge">
<title>MaterialModule&#45;&gt;MatGridListModule </title>
<path fill="none" stroke="#000000" stroke-dasharray="5,2" d="M1694.7213,-179C1872.6699,-179 2431.625,-179 2431.625,-179 2431.625,-179 2431.625,-205.9909 2431.625,-205.9909"/>
<polygon fill="#000000" stroke="#000000" points="2428.1251,-205.9909 2431.625,-215.9909 2435.1251,-205.991 2428.1251,-205.9909"/>
</g>
<!-- MatSidenavModule  -->
<g id="node30" class="node">
<title>MatSidenavModule </title>
<polygon fill="#fb8072" stroke="#000000" points="2352.2023,-252 2221.7977,-252 2221.7977,-216 2352.2023,-216 2352.2023,-252"/>
<text text-anchor="middle" x="2287" y="-229.8" font-family="Times,serif" font-size="14.00" fill="#000000">MatSidenavModule </text>
</g>
<!-- MaterialModule&#45;&gt;MatSidenavModule  -->
<g id="edge29" class="edge">
<title>MaterialModule&#45;&gt;MatSidenavModule </title>
<path fill="none" stroke="#000000" stroke-dasharray="5,2" d="M1694.5668,-181C1845.4333,-181 2262.9663,-181 2262.9663,-181 2262.9663,-181 2262.9663,-205.7604 2262.9663,-205.7604"/>
<polygon fill="#000000" stroke="#000000" points="2259.4664,-205.7604 2262.9663,-215.7604 2266.4664,-205.7604 2259.4664,-205.7604"/>
</g>
<!-- MatSortModule  -->
<g id="node31" class="node">
<title>MatSortModule </title>
<polygon fill="#fb8072" stroke="#000000" points="2203.4334,-252 2094.5666,-252 2094.5666,-216 2203.4334,-216 2203.4334,-252"/>
<text text-anchor="middle" x="2149" y="-229.8" font-family="Times,serif" font-size="14.00" fill="#000000">MatSortModule </text>
</g>
<!-- MaterialModule&#45;&gt;MatSortModule  -->
<g id="edge30" class="edge">
<title>MaterialModule&#45;&gt;MatSortModule </title>
<path fill="none" stroke="#000000" stroke-dasharray="5,2" d="M1694.7774,-182C1821.9174,-182 2130.4278,-182 2130.4278,-182 2130.4278,-182 2130.4278,-205.8129 2130.4278,-205.8129"/>
<polygon fill="#000000" stroke="#000000" points="2126.9279,-205.8129 2130.4278,-215.8129 2133.9279,-205.813 2126.9279,-205.8129"/>
</g>
<!-- MatTableModule  -->
<g id="node32" class="node">
<title>MatTableModule </title>
<polygon fill="#fb8072" stroke="#000000" points="2076.973,-252 1959.027,-252 1959.027,-216 2076.973,-216 2076.973,-252"/>
<text text-anchor="middle" x="2018" y="-229.8" font-family="Times,serif" font-size="14.00" fill="#000000">MatTableModule </text>
</g>
<!-- MaterialModule&#45;&gt;MatTableModule  -->
<g id="edge31" class="edge">
<title>MaterialModule&#45;&gt;MatTableModule </title>
<path fill="none" stroke="#000000" stroke-dasharray="5,2" d="M1694.6529,-184C1803.2431,-184 2038.8287,-184 2038.8287,-184 2038.8287,-184 2038.8287,-205.9489 2038.8287,-205.9489"/>
<polygon fill="#000000" stroke="#000000" points="2035.3288,-205.9488 2038.8287,-215.9489 2042.3288,-205.9489 2035.3288,-205.9488"/>
</g>
<!-- MatInputModule  -->
<g id="node33" class="node">
<title>MatInputModule </title>
<polygon fill="#fb8072" stroke="#000000" points="1941.6509,-252 1826.3491,-252 1826.3491,-216 1941.6509,-216 1941.6509,-252"/>
<text text-anchor="middle" x="1884" y="-229.8" font-family="Times,serif" font-size="14.00" fill="#000000">MatInputModule </text>
</g>
<!-- MaterialModule&#45;&gt;MatInputModule  -->
<g id="edge32" class="edge">
<title>MaterialModule&#45;&gt;MatInputModule </title>
<path fill="none" stroke="#000000" stroke-dasharray="5,2" d="M1694.5137,-186C1771.7844,-186 1905.4418,-186 1905.4418,-186 1905.4418,-186 1905.4418,-205.8533 1905.4418,-205.8533"/>
<polygon fill="#000000" stroke="#000000" points="1901.9419,-205.8532 1905.4418,-215.8533 1908.9419,-205.8533 1901.9419,-205.8532"/>
</g>
<!-- MatSelectModule  -->
<g id="node34" class="node">
<title>MatSelectModule </title>
<polygon fill="#fb8072" stroke="#000000" points="1808.8074,-252 1689.1926,-252 1689.1926,-216 1808.8074,-216 1808.8074,-252"/>
<text text-anchor="middle" x="1749" y="-229.8" font-family="Times,serif" font-size="14.00" fill="#000000">MatSelectModule </text>
</g>
<!-- MaterialModule&#45;&gt;MatSelectModule  -->
<g id="edge33" class="edge">
<title>MaterialModule&#45;&gt;MatSelectModule </title>
<path fill="none" stroke="#000000" stroke-dasharray="5,2" d="M1680.3079,-187.1061C1680.3079,-206.3391 1680.3079,-234 1680.3079,-234 1680.3079,-234 1681.1778,-234 1681.1778,-234"/>
<polygon fill="#000000" stroke="#000000" points="1679.0078,-237.5001 1689.0078,-234 1679.0077,-230.5001 1679.0078,-237.5001"/>
</g>
<!-- MatSliderModule  -->
<g id="node35" class="node">
<title>MatSliderModule </title>
<polygon fill="#fb8072" stroke="#000000" points="1671.5386,-252 1552.4614,-252 1552.4614,-216 1671.5386,-216 1671.5386,-252"/>
<text text-anchor="middle" x="1612" y="-229.8" font-family="Times,serif" font-size="14.00" fill="#000000">MatSliderModule </text>
</g>
<!-- MaterialModule&#45;&gt;MatSliderModule  -->
<g id="edge34" class="edge">
<title>MaterialModule&#45;&gt;MatSliderModule </title>
<path fill="none" stroke="#000000" stroke-dasharray="5,2" d="M1629.517,-187.1061C1629.517,-187.1061 1629.517,-205.991 1629.517,-205.991"/>
<polygon fill="#000000" stroke="#000000" points="1626.0171,-205.9909 1629.517,-215.991 1633.0171,-205.991 1626.0171,-205.9909"/>
</g>
<!-- MatRadioModule  -->
<g id="node36" class="node">
<title>MatRadioModule </title>
<polygon fill="#fb8072" stroke="#000000" points="1534.5414,-252 1415.4586,-252 1415.4586,-216 1534.5414,-216 1534.5414,-252"/>
<text text-anchor="middle" x="1475" y="-229.8" font-family="Times,serif" font-size="14.00" fill="#000000">MatRadioModule </text>
</g>
<!-- MaterialModule&#45;&gt;MatRadioModule  -->
<g id="edge35" class="edge">
<title>MaterialModule&#45;&gt;MatRadioModule </title>
<path fill="none" stroke="#000000" stroke-dasharray="5,2" d="M1587.4661,-186C1541.5928,-186 1482.875,-186 1482.875,-186 1482.875,-186 1482.875,-205.8533 1482.875,-205.8533"/>
<polygon fill="#000000" stroke="#000000" points="1479.3751,-205.8532 1482.875,-215.8533 1486.3751,-205.8533 1479.3751,-205.8532"/>
</g>
<!-- MatListModule  -->
<g id="node37" class="node">
<title>MatListModule </title>
<polygon fill="#fb8072" stroke="#000000" points="1397.8787,-252 1290.1213,-252 1290.1213,-216 1397.8787,-216 1397.8787,-252"/>
<text text-anchor="middle" x="1344" y="-229.8" font-family="Times,serif" font-size="14.00" fill="#000000">MatListModule </text>
</g>
<!-- MaterialModule&#45;&gt;MatListModule  -->
<g id="edge36" class="edge">
<title>MaterialModule&#45;&gt;MatListModule </title>
<path fill="none" stroke="#000000" stroke-dasharray="5,2" d="M1587.2373,-184C1503.9882,-184 1353.375,-184 1353.375,-184 1353.375,-184 1353.375,-205.9489 1353.375,-205.9489"/>
<polygon fill="#000000" stroke="#000000" points="1349.8751,-205.9488 1353.375,-215.9489 1356.8751,-205.9489 1349.8751,-205.9488"/>
</g>
<!-- MatProgressSpinnerModule  -->
<g id="node38" class="node">
<title>MatProgressSpinnerModule </title>
<polygon fill="#fb8072" stroke="#000000" points="1272.856,-252 1095.144,-252 1095.144,-216 1272.856,-216 1272.856,-252"/>
<text text-anchor="middle" x="1184" y="-229.8" font-family="Times,serif" font-size="14.00" fill="#000000">MatProgressSpinnerModule </text>
</g>
<!-- MaterialModule&#45;&gt;MatProgressSpinnerModule  -->
<g id="edge37" class="edge">
<title>MaterialModule&#45;&gt;MatProgressSpinnerModule </title>
<path fill="none" stroke="#000000" stroke-dasharray="5,2" d="M1587.1869,-182C1468.5313,-182 1194.875,-182 1194.875,-182 1194.875,-182 1194.875,-205.8129 1194.875,-205.8129"/>
<polygon fill="#000000" stroke="#000000" points="1191.3751,-205.8129 1194.875,-215.8129 1198.3751,-205.813 1191.3751,-205.8129"/>
</g>
<!-- MatChipsModule  -->
<g id="node39" class="node">
<title>MatChipsModule </title>
<polygon fill="#fb8072" stroke="#000000" points="1077.2717,-252 958.7283,-252 958.7283,-216 1077.2717,-216 1077.2717,-252"/>
<text text-anchor="middle" x="1018" y="-229.8" font-family="Times,serif" font-size="14.00" fill="#000000">MatChipsModule </text>
</g>
<!-- MaterialModule&#45;&gt;MatChipsModule  -->
<g id="edge38" class="edge">
<title>MaterialModule&#45;&gt;MatChipsModule </title>
<path fill="none" stroke="#000000" stroke-dasharray="5,2" d="M1587.3902,-181C1438.5085,-181 1030.875,-181 1030.875,-181 1030.875,-181 1030.875,-205.7604 1030.875,-205.7604"/>
<polygon fill="#000000" stroke="#000000" points="1027.3751,-205.7604 1030.875,-215.7604 1034.3751,-205.7604 1027.3751,-205.7604"/>
</g>
<!-- MatTooltipModule  -->
<g id="node40" class="node">
<title>MatTooltipModule </title>
<polygon fill="#fb8072" stroke="#000000" points="940.3241,-252 813.6759,-252 813.6759,-216 940.3241,-216 940.3241,-252"/>
<text text-anchor="middle" x="877" y="-229.8" font-family="Times,serif" font-size="14.00" fill="#000000">MatTooltipModule </text>
</g>
<!-- MaterialModule&#45;&gt;MatTooltipModule  -->
<g id="edge39" class="edge">
<title>MaterialModule&#45;&gt;MatTooltipModule </title>
<path fill="none" stroke="#000000" stroke-dasharray="5,2" d="M1587.4254,-179C1415.9689,-179 891.875,-179 891.875,-179 891.875,-179 891.875,-205.9909 891.875,-205.9909"/>
<polygon fill="#000000" stroke="#000000" points="888.3751,-205.9909 891.875,-215.9909 895.3751,-205.991 888.3751,-205.9909"/>
</g>
<!-- MatExpansionModule  -->
<g id="node41" class="node">
<title>MatExpansionModule </title>
<polygon fill="#fb8072" stroke="#000000" points="795.2023,-252 650.7977,-252 650.7977,-216 795.2023,-216 795.2023,-252"/>
<text text-anchor="middle" x="723" y="-229.8" font-family="Times,serif" font-size="14.00" fill="#000000">MatExpansionModule </text>
</g>
<!-- MaterialModule&#45;&gt;MatExpansionModule  -->
<g id="edge40" class="edge">
<title>MaterialModule&#45;&gt;MatExpansionModule </title>
<path fill="none" stroke="#000000" stroke-dasharray="5,2" d="M1587.3292,-177C1393.3336,-177 739.875,-177 739.875,-177 739.875,-177 739.875,-205.9648 739.875,-205.9648"/>
<polygon fill="#000000" stroke="#000000" points="736.3751,-205.9648 739.875,-215.9648 743.3751,-205.9649 736.3751,-205.9648"/>
</g>
<!-- MatDialogModule  -->
<g id="node42" class="node">
<title>MatDialogModule </title>
<polygon fill="#fb8072" stroke="#000000" points="632.7024,-252 509.2976,-252 509.2976,-216 632.7024,-216 632.7024,-252"/>
<text text-anchor="middle" x="571" y="-229.8" font-family="Times,serif" font-size="14.00" fill="#000000">MatDialogModule </text>
</g>
<!-- MaterialModule&#45;&gt;MatDialogModule  -->
<g id="edge41" class="edge">
<title>MaterialModule&#45;&gt;MatDialogModule </title>
<path fill="none" stroke="#000000" stroke-dasharray="5,2" d="M1587.404,-175C1373.1033,-175 589.375,-175 589.375,-175 589.375,-175 589.375,-205.9775 589.375,-205.9775"/>
<polygon fill="#000000" stroke="#000000" points="585.8751,-205.9774 589.375,-215.9775 592.8751,-205.9775 585.8751,-205.9774"/>
</g>
<!-- MatAutocompleteModule  -->
<g id="node43" class="node">
<title>MatAutocompleteModule </title>
<polygon fill="#fb8072" stroke="#000000" points="491.4124,-252 326.5876,-252 326.5876,-216 491.4124,-216 491.4124,-252"/>
<text text-anchor="middle" x="409" y="-229.8" font-family="Times,serif" font-size="14.00" fill="#000000">MatAutocompleteModule </text>
</g>
<!-- MaterialModule&#45;&gt;MatAutocompleteModule  -->
<g id="edge42" class="edge">
<title>MaterialModule&#45;&gt;MatAutocompleteModule </title>
<path fill="none" stroke="#000000" stroke-dasharray="5,2" d="M1587.3525,-174C1352.7698,-174 428.875,-174 428.875,-174 428.875,-174 428.875,-205.998 428.875,-205.998"/>
<polygon fill="#000000" stroke="#000000" points="425.3751,-205.998 428.875,-215.998 432.3751,-205.9981 425.3751,-205.998"/>
</g>
<!-- MatTabsModule  -->
<g id="node44" class="node">
<title>MatTabsModule </title>
<polygon fill="#fb8072" stroke="#000000" points="308.3116,-252 195.6884,-252 195.6884,-216 308.3116,-216 308.3116,-252"/>
<text text-anchor="middle" x="252" y="-229.8" font-family="Times,serif" font-size="14.00" fill="#000000">MatTabsModule </text>
</g>
<!-- MaterialModule&#45;&gt;MatTabsModule  -->
<g id="edge43" class="edge">
<title>MaterialModule&#45;&gt;MatTabsModule </title>
<path fill="none" stroke="#000000" stroke-dasharray="5,2" d="M1587.4071,-172C1334.6454,-172 273.875,-172 273.875,-172 273.875,-172 273.875,-205.7333 273.875,-205.7333"/>
<polygon fill="#000000" stroke="#000000" points="270.3751,-205.7333 273.875,-215.7333 277.3751,-205.7333 270.3751,-205.7333"/>
</g>
<!-- MatSlideToggleModule  -->
<g id="node45" class="node">
<title>MatSlideToggleModule </title>
<polygon fill="#fb8072" stroke="#000000" points="178.0358,-252 23.9642,-252 23.9642,-216 178.0358,-216 178.0358,-252"/>
<text text-anchor="middle" x="101" y="-229.8" font-family="Times,serif" font-size="14.00" fill="#000000">MatSlideToggleModule </text>
</g>
<!-- MaterialModule&#45;&gt;MatSlideToggleModule  -->
<g id="edge44" class="edge">
<title>MaterialModule&#45;&gt;MatSlideToggleModule </title>
<path fill="none" stroke="#000000" stroke-dasharray="5,2" d="M1587.468,-170C1318.1656,-170 124.375,-170 124.375,-170 124.375,-170 124.375,-205.8314 124.375,-205.8314"/>
<polygon fill="#000000" stroke="#000000" points="120.8751,-205.8313 124.375,-215.8314 127.8751,-205.8314 120.8751,-205.8313"/>
</g>
</g>
</svg>
