<?xml version="1.0" encoding="UTF-8" standalone="no"?>
<!DOCTYPE svg PUBLIC "-//W3C//DTD SVG 1.1//EN"
 "http://www.w3.org/Graphics/SVG/1.1/DTD/svg11.dtd">
<!-- Generated by graphviz version 2.40.1 (20161225.0304)
 -->
<!-- Title: dependencies Pages: 1 -->
<svg width="2519pt" height="284pt"
 viewBox="0.00 0.00 2519.00 284.00" xmlns="http://www.w3.org/2000/svg" xmlns:xlink="http://www.w3.org/1999/xlink">
<g id="graph0" class="graph" transform="scale(1 1) rotate(0) translate(4 280)">
<title>dependencies</title>
<polygon fill="#ffffff" stroke="transparent" points="-4,4 -4,-280 2515,-280 2515,4 -4,4"/>
<text text-anchor="start" x="1234.5091" y="-42.4" font-family="sans-serif" font-weight="bold" font-size="14.00" fill="#000000">Legend</text>
<polygon fill="#ffffb3" stroke="transparent" points="1021.5,-10 1021.5,-30 1041.5,-30 1041.5,-10 1021.5,-10"/>
<text text-anchor="start" x="1045.129" y="-15.4" font-family="sans-serif" font-size="14.00" fill="#000000"> &#160;Declarations</text>
<polygon fill="#8dd3c7" stroke="transparent" points="1134.5,-10 1134.5,-30 1154.5,-30 1154.5,-10 1134.5,-10"/>
<text text-anchor="start" x="1158.2251" y="-15.4" font-family="sans-serif" font-size="14.00" fill="#000000"> &#160;Module</text>
<polygon fill="#80b1d3" stroke="transparent" points="1220.5,-10 1220.5,-30 1240.5,-30 1240.5,-10 1220.5,-10"/>
<text text-anchor="start" x="1244.2812" y="-15.4" font-family="sans-serif" font-size="14.00" fill="#000000"> &#160;Bootstrap</text>
<polygon fill="#fdb462" stroke="transparent" points="1317.5,-10 1317.5,-30 1337.5,-30 1337.5,-10 1317.5,-10"/>
<text text-anchor="start" x="1341.1732" y="-15.4" font-family="sans-serif" font-size="14.00" fill="#000000"> &#160;Providers</text>
<polygon fill="#fb8072" stroke="transparent" points="1413.5,-10 1413.5,-30 1433.5,-30 1433.5,-10 1413.5,-10"/>
<text text-anchor="start" x="1437.2258" y="-15.4" font-family="sans-serif" font-size="14.00" fill="#000000"> &#160;Exports</text>
<g id="clust1" class="cluster">
<title>cluster_AppModule</title>
<polygon fill="none" stroke="#000000" stroke-dasharray="1,5" points="8,-70 8,-268 2503,-268 2503,-70 8,-70"/>
</g>
<g id="clust2" class="cluster">
<title>cluster_AppModule_declarations</title>
<polygon fill="none" stroke="#000000" points="1655,-78 1655,-130 2495,-130 2495,-78 1655,-78"/>
</g>
<g id="clust9" class="cluster">
<title>cluster_AppModule_imports</title>
<polygon fill="none" stroke="#000000" points="164,-78 164,-130 1647,-130 1647,-78 164,-78"/>
</g>
<g id="clust11" class="cluster">
<title>cluster_AppModule_bootstrap</title>
<polygon fill="none" stroke="#000000" points="1208,-208 1208,-260 1332,-260 1332,-208 1208,-208"/>
</g>
<g id="clust12" class="cluster">
<title>cluster_AppModule_providers</title>
<polygon fill="none" stroke="#000000" points="16,-78 16,-130 156,-130 156,-78 16,-78"/>
</g>
<!-- AppComponent -->
<g id="node1" class="node">
<title>AppComponent</title>
<polygon fill="#ffffb3" stroke="#000000" points="2486.9399,-122 2381.0601,-122 2381.0601,-86 2486.9399,-86 2486.9399,-122"/>
<text text-anchor="middle" x="2434" y="-99.8" font-family="Times,serif" font-size="14.00" fill="#000000">AppComponent</text>
</g>
<!-- AppModule -->
<g id="node7" class="node">
<title>AppModule</title>
<polygon fill="#8dd3c7" stroke="#000000" points="1311.6571,-187 1308.6571,-191 1287.6571,-191 1284.6571,-187 1228.3429,-187 1228.3429,-151 1311.6571,-151 1311.6571,-187"/>
<text text-anchor="middle" x="1270" y="-164.8" font-family="Times,serif" font-size="14.00" fill="#000000">AppModule</text>
</g>
<!-- AppComponent&#45;&gt;AppModule -->
<g id="edge1" class="edge">
<title>AppComponent&#45;&gt;AppModule</title>
<path fill="none" stroke="#000000" d="M2434,-122.3228C2434,-145.6602 2434,-183 2434,-183 2434,-183 1321.7706,-183 1321.7706,-183"/>
<polygon fill="#000000" stroke="#000000" points="1321.7706,-179.5001 1311.7706,-183 1321.7705,-186.5001 1321.7706,-179.5001"/>
</g>
<!-- PostsComponent -->
<g id="node2" class="node">
<title>PostsComponent</title>
<polygon fill="#ffffb3" stroke="#000000" points="2363.3948,-122 2252.6052,-122 2252.6052,-86 2363.3948,-86 2363.3948,-122"/>
<text text-anchor="middle" x="2308" y="-99.8" font-family="Times,serif" font-size="14.00" fill="#000000">PostsComponent</text>
</g>
<!-- PostsComponent&#45;&gt;AppModule -->
<g id="edge2" class="edge">
<title>PostsComponent&#45;&gt;AppModule</title>
<path fill="none" stroke="#000000" d="M2308,-122.1554C2308,-144.3519 2308,-179 2308,-179 2308,-179 1321.9764,-179 1321.9764,-179"/>
<polygon fill="#000000" stroke="#000000" points="1321.9765,-175.5001 1311.9764,-179 1321.9764,-182.5001 1321.9765,-175.5001"/>
</g>
<!-- HomeComponent -->
<g id="node3" class="node">
<title>HomeComponent</title>
<polygon fill="#ffffb3" stroke="#000000" points="2234.5451,-122 2119.4549,-122 2119.4549,-86 2234.5451,-86 2234.5451,-122"/>
<text text-anchor="middle" x="2177" y="-99.8" font-family="Times,serif" font-size="14.00" fill="#000000">HomeComponent</text>
</g>
<!-- HomeComponent&#45;&gt;AppModule -->
<g id="edge3" class="edge">
<title>HomeComponent&#45;&gt;AppModule</title>
<path fill="none" stroke="#000000" d="M2177,-122.2843C2177,-143.3211 2177,-175 2177,-175 2177,-175 1321.9274,-175 1321.9274,-175"/>
<polygon fill="#000000" stroke="#000000" points="1321.9275,-171.5001 1311.9274,-175 1321.9274,-178.5001 1321.9275,-171.5001"/>
</g>
<!-- HeadlinesComponent -->
<g id="node4" class="node">
<title>HeadlinesComponent</title>
<polygon fill="#ffffb3" stroke="#000000" points="2101.8089,-122 1964.1911,-122 1964.1911,-86 2101.8089,-86 2101.8089,-122"/>
<text text-anchor="middle" x="2033" y="-99.8" font-family="Times,serif" font-size="14.00" fill="#000000">HeadlinesComponent</text>
</g>
<!-- HeadlinesComponent&#45;&gt;AppModule -->
<g id="edge4" class="edge">
<title>HeadlinesComponent&#45;&gt;AppModule</title>
<path fill="none" stroke="#000000" d="M2033,-122.308C2033,-142.1455 2033,-171 2033,-171 2033,-171 1321.8361,-171 1321.8361,-171"/>
<polygon fill="#000000" stroke="#000000" points="1321.8362,-167.5001 1311.8361,-171 1321.8361,-174.5001 1321.8362,-167.5001"/>
</g>
<!-- ContactComponent -->
<g id="node5" class="node">
<title>ContactComponent</title>
<polygon fill="#ffffb3" stroke="#000000" points="1946.3795,-122 1821.6205,-122 1821.6205,-86 1946.3795,-86 1946.3795,-122"/>
<text text-anchor="middle" x="1884" y="-99.8" font-family="Times,serif" font-size="14.00" fill="#000000">ContactComponent</text>
</g>
<!-- ContactComponent&#45;&gt;AppModule -->
<g id="edge5" class="edge">
<title>ContactComponent&#45;&gt;AppModule</title>
<path fill="none" stroke="#000000" d="M1884,-122.2222C1884,-140.8285 1884,-167 1884,-167 1884,-167 1321.72,-167 1321.72,-167"/>
<polygon fill="#000000" stroke="#000000" points="1321.72,-163.5001 1311.72,-167 1321.72,-170.5001 1321.72,-163.5001"/>
</g>
<!-- RechercheComponent -->
<g id="node6" class="node">
<title>RechercheComponent</title>
<polygon fill="#ffffb3" stroke="#000000" points="1803.4032,-122 1662.5968,-122 1662.5968,-86 1803.4032,-86 1803.4032,-122"/>
<text text-anchor="middle" x="1733" y="-99.8" font-family="Times,serif" font-size="14.00" fill="#000000">RechercheComponent</text>
</g>
<!-- RechercheComponent&#45;&gt;AppModule -->
<g id="edge6" class="edge">
<title>RechercheComponent&#45;&gt;AppModule</title>
<path fill="none" stroke="#000000" d="M1733,-122.0225C1733,-139.3734 1733,-163 1733,-163 1733,-163 1321.9048,-163 1321.9048,-163"/>
<polygon fill="#000000" stroke="#000000" points="1321.9048,-159.5001 1311.9048,-163 1321.9047,-166.5001 1321.9048,-159.5001"/>
</g>
<!-- AppComponent  -->
<g id="node18" class="node">
<title>AppComponent </title>
<polygon fill="#80b1d3" stroke="#000000" points="1324.439,-252 1215.561,-252 1215.561,-216 1324.439,-216 1324.439,-252"/>
<text text-anchor="middle" x="1270" y="-229.8" font-family="Times,serif" font-size="14.00" fill="#000000">AppComponent </text>
</g>
<!-- AppModule&#45;&gt;AppComponent  -->
<g id="edge17" class="edge">
<title>AppModule&#45;&gt;AppComponent </title>
<path fill="none" stroke="#000000" stroke-dasharray="1,5" d="M1270,-187.1061C1270,-187.1061 1270,-205.991 1270,-205.991"/>
<polygon fill="#000000" stroke="#000000" points="1266.5001,-205.9909 1270,-215.991 1273.5001,-205.991 1266.5001,-205.9909"/>
</g>
<!-- BrowserModule -->
<g id="node8" class="node">
<title>BrowserModule</title>
<polygon fill="#8dd3c7" stroke="#000000" points="1639.4734,-122 1636.4734,-126 1615.4734,-126 1612.4734,-122 1532.5266,-122 1532.5266,-86 1639.4734,-86 1639.4734,-122"/>
<text text-anchor="middle" x="1586" y="-99.8" font-family="Times,serif" font-size="14.00" fill="#000000">BrowserModule</text>
</g>
<!-- BrowserModule&#45;&gt;AppModule -->
<g id="edge7" class="edge">
<title>BrowserModule&#45;&gt;AppModule</title>
<path fill="none" stroke="#000000" d="M1586,-122.0091C1586,-138.0494 1586,-159 1586,-159 1586,-159 1321.9624,-159 1321.9624,-159"/>
<polygon fill="#000000" stroke="#000000" points="1321.9624,-155.5001 1311.9624,-159 1321.9623,-162.5001 1321.9624,-155.5001"/>
</g>
<!-- BrowserAnimationsModule -->
<g id="node9" class="node">
<title>BrowserAnimationsModule</title>
<polygon fill="#8dd3c7" stroke="#000000" points="1514.3019,-122 1511.3019,-126 1490.3019,-126 1487.3019,-122 1341.6981,-122 1341.6981,-86 1514.3019,-86 1514.3019,-122"/>
<text text-anchor="middle" x="1428" y="-99.8" font-family="Times,serif" font-size="14.00" fill="#000000">BrowserAnimationsModule</text>
</g>
<!-- BrowserAnimationsModule&#45;&gt;AppModule -->
<g id="edge8" class="edge">
<title>BrowserAnimationsModule&#45;&gt;AppModule</title>
<path fill="none" stroke="#000000" d="M1428,-122.1243C1428,-136.7832 1428,-155 1428,-155 1428,-155 1321.9263,-155 1321.9263,-155"/>
<polygon fill="#000000" stroke="#000000" points="1321.9263,-151.5001 1311.9263,-155 1321.9262,-158.5001 1321.9263,-151.5001"/>
</g>
<!-- MaterialModule -->
<g id="node10" class="node">
<title>MaterialModule</title>
<polygon fill="#8dd3c7" stroke="#000000" points="1323.4706,-122 1320.4706,-126 1299.4706,-126 1296.4706,-122 1216.5294,-122 1216.5294,-86 1323.4706,-86 1323.4706,-122"/>
<text text-anchor="middle" x="1270" y="-99.8" font-family="Times,serif" font-size="14.00" fill="#000000">MaterialModule</text>
</g>
<!-- MaterialModule&#45;&gt;AppModule -->
<g id="edge9" class="edge">
<title>MaterialModule&#45;&gt;AppModule</title>
<path fill="none" stroke="#000000" d="M1270,-122.1061C1270,-122.1061 1270,-140.991 1270,-140.991"/>
<polygon fill="#000000" stroke="#000000" points="1266.5001,-140.9909 1270,-150.991 1273.5001,-140.991 1266.5001,-140.9909"/>
</g>
<!-- FlexLayoutModule -->
<g id="node11" class="node">
<title>FlexLayoutModule</title>
<polygon fill="#8dd3c7" stroke="#000000" points="1198.0954,-122 1195.0954,-126 1174.0954,-126 1171.0954,-122 1073.9046,-122 1073.9046,-86 1198.0954,-86 1198.0954,-122"/>
<text text-anchor="middle" x="1136" y="-99.8" font-family="Times,serif" font-size="14.00" fill="#000000">FlexLayoutModule</text>
</g>
<!-- FlexLayoutModule&#45;&gt;AppModule -->
<g id="edge10" class="edge">
<title>FlexLayoutModule&#45;&gt;AppModule</title>
<path fill="none" stroke="#000000" d="M1136,-122.1243C1136,-136.7832 1136,-155 1136,-155 1136,-155 1218.3361,-155 1218.3361,-155"/>
<polygon fill="#000000" stroke="#000000" points="1218.3361,-158.5001 1228.3361,-155 1218.3361,-151.5001 1218.3361,-158.5001"/>
</g>
<!-- AppRoutingModule -->
<g id="node12" class="node">
<title>AppRoutingModule</title>
<polygon fill="#8dd3c7" stroke="#000000" points="1056.2744,-122 1053.2744,-126 1032.2744,-126 1029.2744,-122 927.7256,-122 927.7256,-86 1056.2744,-86 1056.2744,-122"/>
<text text-anchor="middle" x="992" y="-99.8" font-family="Times,serif" font-size="14.00" fill="#000000">AppRoutingModule</text>
</g>
<!-- AppRoutingModule&#45;&gt;AppModule -->
<g id="edge11" class="edge">
<title>AppRoutingModule&#45;&gt;AppModule</title>
<path fill="none" stroke="#000000" d="M992,-122.0091C992,-138.0494 992,-159 992,-159 992,-159 1218.0796,-159 1218.0796,-159"/>
<polygon fill="#000000" stroke="#000000" points="1218.0796,-162.5001 1228.0796,-159 1218.0796,-155.5001 1218.0796,-162.5001"/>
</g>
<!-- FormsModule -->
<g id="node13" class="node">
<title>FormsModule</title>
<polygon fill="#8dd3c7" stroke="#000000" points="909.8288,-122 906.8288,-126 885.8288,-126 882.8288,-122 814.1712,-122 814.1712,-86 909.8288,-86 909.8288,-122"/>
<text text-anchor="middle" x="862" y="-99.8" font-family="Times,serif" font-size="14.00" fill="#000000">FormsModule</text>
</g>
<!-- FormsModule&#45;&gt;AppModule -->
<g id="edge12" class="edge">
<title>FormsModule&#45;&gt;AppModule</title>
<path fill="none" stroke="#000000" d="M862,-122.0225C862,-139.3734 862,-163 862,-163 862,-163 1218.2542,-163 1218.2542,-163"/>
<polygon fill="#000000" stroke="#000000" points="1218.2543,-166.5001 1228.2542,-163 1218.2542,-159.5001 1218.2543,-166.5001"/>
</g>
<!-- ReactiveFormsModule -->
<g id="node14" class="node">
<title>ReactiveFormsModule</title>
<polygon fill="#8dd3c7" stroke="#000000" points="796.3047,-122 793.3047,-126 772.3047,-126 769.3047,-122 651.6953,-122 651.6953,-86 796.3047,-86 796.3047,-122"/>
<text text-anchor="middle" x="724" y="-99.8" font-family="Times,serif" font-size="14.00" fill="#000000">ReactiveFormsModule</text>
</g>
<!-- ReactiveFormsModule&#45;&gt;AppModule -->
<g id="edge13" class="edge">
<title>ReactiveFormsModule&#45;&gt;AppModule</title>
<path fill="none" stroke="#000000" d="M724,-122.2222C724,-140.8285 724,-167 724,-167 724,-167 1218.0629,-167 1218.0629,-167"/>
<polygon fill="#000000" stroke="#000000" points="1218.0629,-170.5001 1228.0629,-167 1218.0629,-163.5001 1218.0629,-170.5001"/>
</g>
<!-- HttpModule -->
<g id="node15" class="node">
<title>HttpModule</title>
<polygon fill="#8dd3c7" stroke="#000000" points="634.4387,-122 631.4387,-126 610.4387,-126 607.4387,-122 549.5613,-122 549.5613,-86 634.4387,-86 634.4387,-122"/>
<text text-anchor="middle" x="592" y="-99.8" font-family="Times,serif" font-size="14.00" fill="#000000">HttpModule</text>
</g>
<!-- HttpModule&#45;&gt;AppModule -->
<g id="edge14" class="edge">
<title>HttpModule&#45;&gt;AppModule</title>
<path fill="none" stroke="#000000" d="M592,-122.308C592,-142.1455 592,-171 592,-171 592,-171 1218.0997,-171 1218.0997,-171"/>
<polygon fill="#000000" stroke="#000000" points="1218.0998,-174.5001 1228.0997,-171 1218.0997,-167.5001 1218.0998,-174.5001"/>
</g>
<!-- HttpClientModule -->
<g id="node16" class="node">
<title>HttpClientModule</title>
<polygon fill="#8dd3c7" stroke="#000000" points="531.1611,-122 528.1611,-126 507.1611,-126 504.1611,-122 412.8389,-122 412.8389,-86 531.1611,-86 531.1611,-122"/>
<text text-anchor="middle" x="472" y="-99.8" font-family="Times,serif" font-size="14.00" fill="#000000">HttpClientModule</text>
</g>
<!-- HttpClientModule&#45;&gt;AppModule -->
<g id="edge15" class="edge">
<title>HttpClientModule&#45;&gt;AppModule</title>
<path fill="none" stroke="#000000" d="M472,-122.2843C472,-143.3211 472,-175 472,-175 472,-175 1218.2196,-175 1218.2196,-175"/>
<polygon fill="#000000" stroke="#000000" points="1218.2196,-178.5001 1228.2196,-175 1218.2196,-171.5001 1218.2196,-178.5001"/>
</g>
<!-- ServiceWorkerModule.register(args) -->
<g id="node17" class="node">
<title>ServiceWorkerModule.register(args)</title>
<polygon fill="#8dd3c7" stroke="#000000" points="394.3954,-122 391.3954,-126 370.3954,-126 367.3954,-122 171.6046,-122 171.6046,-86 394.3954,-86 394.3954,-122"/>
<text text-anchor="middle" x="283" y="-99.8" font-family="Times,serif" font-size="14.00" fill="#000000">ServiceWorkerModule.register(args)</text>
</g>
<!-- ServiceWorkerModule.register(args)&#45;&gt;AppModule -->
<g id="edge16" class="edge">
<title>ServiceWorkerModule.register(args)&#45;&gt;AppModule</title>
<path fill="none" stroke="#000000" d="M283,-122.1554C283,-144.3519 283,-179 283,-179 283,-179 1218.2203,-179 1218.2203,-179"/>
<polygon fill="#000000" stroke="#000000" points="1218.2203,-182.5001 1228.2203,-179 1218.2202,-175.5001 1218.2203,-182.5001"/>
</g>
<!-- NewsService -->
<g id="node19" class="node">
<title>NewsService</title>
<ellipse fill="#fdb462" stroke="#000000" cx="86" cy="-104" rx="61.9538" ry="18"/>
<text text-anchor="middle" x="86" y="-99.8" font-family="Times,serif" font-size="14.00" fill="#000000">NewsService</text>
</g>
<!-- NewsService&#45;&gt;AppModule -->
<g id="edge18" class="edge">
<title>NewsService&#45;&gt;AppModule</title>
<path fill="none" stroke="#000000" d="M86,-122.3228C86,-145.6602 86,-183 86,-183 86,-183 1218.2086,-183 1218.2086,-183"/>
<polygon fill="#000000" stroke="#000000" points="1218.2086,-186.5001 1228.2086,-183 1218.2086,-179.5001 1218.2086,-186.5001"/>
</g>
</g>
</svg>
